<?xml version="1.0" encoding="UTF-8" standalone="no"?><!DOCTYPE svg PUBLIC "-//W3C//DTD SVG 1.1//EN" "http://www.w3.org/Graphics/SVG/1.1/DTD/svg11.dtd"><svg width="100%" height="100%" viewBox="0 0 51 86" version="1.1" xmlns="http://www.w3.org/2000/svg" xmlns:xlink="http://www.w3.org/1999/xlink" xml:space="preserve" xmlns:serif="http://www.serif.com/" style="fill-rule:evenodd;clip-rule:evenodd;stroke-linejoin:round;stroke-miterlimit:2;"><rect id="Página-31" serif:id="Página 31" x="0" y="0" width="50.557" height="85.475" style="fill:none;"/><g id="Background"></g><g id="Layer-4" serif:id="Layer 4"></g><g id="Objects"><path d="M39.777,64.44c-0.315,0.182 -0.534,0.486 -0.627,0.838c-1.719,6.475 -7.635,11.089 -14.408,11.089c-6.65,0 -12.481,-4.437 -14.324,-10.718c-0.112,-0.381 -0.45,-0.65 -0.847,-0.65l-6.086,0c-0.567,0 -0.977,0.525 -0.861,1.08c2.16,10.359 11.35,17.951 22.119,17.951c11.415,0 21.056,-8.538 22.424,-19.859c0.143,-1.182 0.167,-2.295 0.155,-3.105c-0.006,-0.437 -0.474,-0.709 -0.853,-0.491c-1.656,0.956 -5.358,3.093 -6.692,3.864Z" style="fill:#eee5e2;fill-rule:nonzero;"/><path d="M14.073,17.369c0.261,-0.15 0.454,-0.383 0.554,-0.667c0.578,-1.649 3.141,-7.519 10.363,-7.519c4.655,0 8.636,2.926 10.2,7.041c0.133,0.35 0.456,0.591 0.83,0.591l5.528,0c0.579,0 0.997,-0.548 0.856,-1.109c-1.96,-7.795 -9.022,-13.58 -17.414,-13.58c-8.793,-0 -16.122,6.339 -17.663,14.688c-0.242,1.309 -0.292,2.687 -0.288,3.607c0.002,0.449 0.488,0.726 0.877,0.502c1.592,-0.919 4.977,-2.874 6.158,-3.556" style="fill:#f54e5a;fill-rule:nonzero;"/><path d="M45.909,28.299l-19.653,-11.346c-0.884,-0.511 -1.973,-0.511 -2.857,0l-7.659,4.422c-0.492,0.284 -7.627,4.403 -8.662,5.001l-3.332,1.924c-0.884,0.511 -1.429,1.453 -1.429,2.474l0,22.693c0,1.021 0.545,1.964 1.429,2.474l19.653,11.347c0.884,0.51 1.973,0.51 2.857,0l6.746,-3.895c0.536,-0.31 7.434,-4.292 8.149,-4.705l4.758,-2.747c0.884,-0.51 1.428,-1.453 1.428,-2.474l0,-22.693c0,-1.021 -0.545,-1.964 -1.428,-2.474" style="fill:#d1d3d4;fill-rule:nonzero;"/><path d="M45.909,28.299l-19.653,-11.346c-0.884,-0.511 -1.973,-0.511 -2.857,0l-7.659,4.422c-0.492,0.284 -7.627,4.403 -8.662,5.001l-3.332,1.924c-0.884,0.511 -1.429,1.453 -1.429,2.474l0,22.693c0,1.021 0.545,1.964 1.429,2.474l19.653,11.347c0.884,0.51 1.973,0.51 2.857,0l6.746,-3.895c0.536,-0.31 7.434,-4.292 8.149,-4.705l4.758,-2.747c0.884,-0.51 1.428,-1.453 1.428,-2.474l0,-22.693c0,-1.021 -0.545,-1.964 -1.428,-2.474" style="fill:#eee5e2;fill-rule:nonzero;"/><path d="M33.215,35.878l0,18.103c0,0.389 0.252,0.61 0.54,0.62c0.096,0.003 0.195,-0.017 0.29,-0.062l5.342,-3.107c0.536,-0.416 0.812,-1.036 0.812,-1.832c0,-0.919 -0.002,-15.757 -0.002,-15.757l0.001,-0.019c-0.048,-0.482 -0.288,-1.213 -0.998,-1.636c0,0 -13.385,-7.718 -13.714,-7.907c-0.006,-0.003 -0.017,-0.01 -0.022,-0.012c-0.151,-0.078 -0.384,-0.121 -0.62,-0.126c-0.005,0 -0.01,-0.001 -0.015,-0.001c-0.005,0 -0.01,0.001 -0.016,0.001c-0.236,0.004 -0.469,0.048 -0.62,0.126c-0.005,0.003 -0.016,0.009 -0.022,0.012c-0.329,0.188 -13.714,7.907 -13.714,7.907c-0.71,0.423 -1.007,1.223 -1.007,2.183c0,0.96 0.007,14.31 0.007,15.229c0,0.796 0.276,1.416 0.812,1.832l5.342,3.107c0.095,0.045 0.195,0.065 0.29,0.062c0.287,-0.01 0.539,-0.232 0.539,-0.62l0,-18.103l2.919,0c1.237,0 1.976,0.962 1.976,1.892l0,12.349c0,0.365 0.18,0.764 0.536,0.956c0.356,0.192 2.957,1.598 2.957,1.598c0,0 2.649,-1.442 3.009,-1.626c0.36,-0.185 0.483,-0.524 0.483,-0.956l0,-12.321c0,-0.93 0.977,-1.892 1.823,-1.892l3.072,0Z" style="fill:#f54e5a;fill-rule:nonzero;"/></g><g id="Dimensions"></g></svg>